<mxfile host="app.diagrams.net" modified="2022-06-21T21:43:44.989Z" agent="5.0 (X11)" etag="ZMNi9epac4GlrXEkl4x6" version="17.2.4" type="github">
  <diagram id="VEZ1iKNo4rxkWymKWu8M" name="Page-1">
    <mxGraphModel dx="1203" dy="985" grid="1" gridSize="10" guides="1" tooltips="1" connect="1" arrows="1" fold="1" page="1" pageScale="1" pageWidth="1100" pageHeight="850" math="0" shadow="0">
      <root>
        <mxCell id="0" />
        <mxCell id="1" parent="0" />
        <mxCell id="ZMm18c1q7OLNOJH5EHSv-1" value="&lt;font style=&quot;font-size: 15px&quot;&gt;Cliente&lt;/font&gt;" style="shape=umlActor;verticalLabelPosition=bottom;verticalAlign=top;html=1;outlineConnect=0;" parent="1" vertex="1">
          <mxGeometry x="120" y="230" width="40" height="80" as="geometry" />
        </mxCell>
        <mxCell id="ZMm18c1q7OLNOJH5EHSv-2" value="&lt;font style=&quot;font-size: 15px&quot;&gt;Administrador&lt;/font&gt;" style="shape=umlActor;verticalLabelPosition=bottom;verticalAlign=top;html=1;outlineConnect=0;" parent="1" vertex="1">
          <mxGeometry x="260" y="490" width="40" height="80" as="geometry" />
        </mxCell>
        <mxCell id="ZMm18c1q7OLNOJH5EHSv-3" value="&lt;font style=&quot;font-size: 15px&quot;&gt;Recepcionista&lt;/font&gt;" style="shape=umlActor;verticalLabelPosition=bottom;verticalAlign=top;html=1;outlineConnect=0;" parent="1" vertex="1">
          <mxGeometry x="260" y="230" width="40" height="80" as="geometry" />
        </mxCell>
        <mxCell id="ZMm18c1q7OLNOJH5EHSv-6" value="&amp;lt;&amp;lt; CRUD &amp;gt;&amp;gt;&lt;br&gt;&lt;br&gt;Gerenciar clientes" style="ellipse;whiteSpace=wrap;html=1;fontSize=15;" parent="1" vertex="1">
          <mxGeometry x="780" y="10" width="190" height="130" as="geometry" />
        </mxCell>
        <mxCell id="ZMm18c1q7OLNOJH5EHSv-7" value="&amp;lt;&amp;lt; CRUD &amp;gt;&amp;gt;&lt;br&gt;&lt;br&gt;Gerenciar quartos" style="ellipse;whiteSpace=wrap;html=1;fontSize=15;" parent="1" vertex="1">
          <mxGeometry x="480" y="640" width="180" height="130" as="geometry" />
        </mxCell>
        <mxCell id="ZMm18c1q7OLNOJH5EHSv-8" value="" style="endArrow=none;html=1;rounded=0;fontSize=15;" parent="1" source="ZMm18c1q7OLNOJH5EHSv-1" target="ZMm18c1q7OLNOJH5EHSv-3" edge="1">
          <mxGeometry width="50" height="50" relative="1" as="geometry">
            <mxPoint x="520" y="430" as="sourcePoint" />
            <mxPoint x="570" y="380" as="targetPoint" />
          </mxGeometry>
        </mxCell>
        <mxCell id="ZMm18c1q7OLNOJH5EHSv-9" value="" style="endArrow=none;html=1;rounded=0;fontSize=15;entryX=0;entryY=0.5;entryDx=0;entryDy=0;" parent="1" source="ZMm18c1q7OLNOJH5EHSv-3" target="ZMm18c1q7OLNOJH5EHSv-6" edge="1">
          <mxGeometry width="50" height="50" relative="1" as="geometry">
            <mxPoint x="460" y="229" as="sourcePoint" />
            <mxPoint x="690" y="229" as="targetPoint" />
          </mxGeometry>
        </mxCell>
        <mxCell id="ZMm18c1q7OLNOJH5EHSv-10" value="" style="endArrow=none;html=1;rounded=0;fontSize=15;entryX=0;entryY=0.5;entryDx=0;entryDy=0;" parent="1" source="ZMm18c1q7OLNOJH5EHSv-2" target="ZMm18c1q7OLNOJH5EHSv-7" edge="1">
          <mxGeometry width="50" height="50" relative="1" as="geometry">
            <mxPoint x="520" y="550.0011111111111" as="sourcePoint" />
            <mxPoint x="680" y="398.89" as="targetPoint" />
          </mxGeometry>
        </mxCell>
        <mxCell id="ZMm18c1q7OLNOJH5EHSv-11" value="Atualizar reserva" style="ellipse;whiteSpace=wrap;html=1;fontSize=15;" parent="1" vertex="1">
          <mxGeometry x="780" y="170" width="190" height="130" as="geometry" />
        </mxCell>
        <mxCell id="ZMm18c1q7OLNOJH5EHSv-12" value="Realizar check-in" style="ellipse;whiteSpace=wrap;html=1;fontSize=15;" parent="1" vertex="1">
          <mxGeometry x="780" y="320" width="190" height="130" as="geometry" />
        </mxCell>
        <mxCell id="ZMm18c1q7OLNOJH5EHSv-13" value="Realizar check-out" style="ellipse;whiteSpace=wrap;html=1;fontSize=15;" parent="1" vertex="1">
          <mxGeometry x="780" y="480" width="190" height="130" as="geometry" />
        </mxCell>
        <mxCell id="ZMm18c1q7OLNOJH5EHSv-14" value="" style="endArrow=none;html=1;rounded=0;fontSize=15;entryX=0;entryY=0.5;entryDx=0;entryDy=0;" parent="1" source="ZMm18c1q7OLNOJH5EHSv-3" target="ZMm18c1q7OLNOJH5EHSv-11" edge="1">
          <mxGeometry width="50" height="50" relative="1" as="geometry">
            <mxPoint x="440" y="261.66666666666663" as="sourcePoint" />
            <mxPoint x="600" y="115" as="targetPoint" />
          </mxGeometry>
        </mxCell>
        <mxCell id="ZMm18c1q7OLNOJH5EHSv-15" value="" style="endArrow=none;html=1;rounded=0;fontSize=15;entryX=0;entryY=0.5;entryDx=0;entryDy=0;" parent="1" source="ZMm18c1q7OLNOJH5EHSv-3" target="ZMm18c1q7OLNOJH5EHSv-12" edge="1">
          <mxGeometry width="50" height="50" relative="1" as="geometry">
            <mxPoint x="730" y="353.33333333333337" as="sourcePoint" />
            <mxPoint x="890" y="340" as="targetPoint" />
          </mxGeometry>
        </mxCell>
        <mxCell id="ZMm18c1q7OLNOJH5EHSv-16" value="" style="endArrow=none;html=1;rounded=0;fontSize=15;exitX=0;exitY=0.5;exitDx=0;exitDy=0;" parent="1" source="ZMm18c1q7OLNOJH5EHSv-13" target="ZMm18c1q7OLNOJH5EHSv-3" edge="1">
          <mxGeometry width="50" height="50" relative="1" as="geometry">
            <mxPoint x="880" y="370" as="sourcePoint" />
            <mxPoint x="980" y="370" as="targetPoint" />
          </mxGeometry>
        </mxCell>
        <mxCell id="ZMm18c1q7OLNOJH5EHSv-17" value="Gerar relatÃ³rio" style="ellipse;whiteSpace=wrap;html=1;fontSize=15;" parent="1" vertex="1">
          <mxGeometry x="480" y="490" width="190" height="130" as="geometry" />
        </mxCell>
        <mxCell id="ZMm18c1q7OLNOJH5EHSv-19" value="" style="endArrow=none;dashed=1;html=1;rounded=0;fontSize=15;entryX=0;entryY=1;entryDx=0;entryDy=0;exitX=0.984;exitY=0.654;exitDx=0;exitDy=0;endFill=0;startArrow=open;startFill=0;exitPerimeter=0;" parent="1" source="ZMm18c1q7OLNOJH5EHSv-17" target="ZMm18c1q7OLNOJH5EHSv-13" edge="1">
          <mxGeometry width="50" height="50" relative="1" as="geometry">
            <mxPoint x="520" y="410" as="sourcePoint" />
            <mxPoint x="570" y="360" as="targetPoint" />
          </mxGeometry>
        </mxCell>
        <mxCell id="ZMm18c1q7OLNOJH5EHSv-21" value="" style="endArrow=none;html=1;rounded=0;fontSize=15;entryX=0;entryY=0.5;entryDx=0;entryDy=0;" parent="1" source="ZMm18c1q7OLNOJH5EHSv-2" target="ZMm18c1q7OLNOJH5EHSv-17" edge="1">
          <mxGeometry width="50" height="50" relative="1" as="geometry">
            <mxPoint x="340" y="510" as="sourcePoint" />
            <mxPoint x="520" y="667.5" as="targetPoint" />
          </mxGeometry>
        </mxCell>
        <mxCell id="ZMm18c1q7OLNOJH5EHSv-22" value="&amp;lt;&amp;lt; include &amp;gt;&amp;gt;" style="text;html=1;strokeColor=none;fillColor=none;align=center;verticalAlign=middle;whiteSpace=wrap;rounded=0;fontSize=15;rotation=5;" parent="1" vertex="1">
          <mxGeometry x="680" y="550" width="100" height="30" as="geometry" />
        </mxCell>
        <mxCell id="ZMm18c1q7OLNOJH5EHSv-24" value="" style="endArrow=none;html=1;rounded=0;fontSize=15;endFill=0;startArrow=block;startFill=0;" parent="1" edge="1">
          <mxGeometry width="50" height="50" relative="1" as="geometry">
            <mxPoint x="279.5" y="340" as="sourcePoint" />
            <mxPoint x="280" y="480" as="targetPoint" />
          </mxGeometry>
        </mxCell>
      </root>
    </mxGraphModel>
  </diagram>
</mxfile>
